<svg width="12" height="13" viewBox="0 0 12 13" fill="none" xmlns="http://www.w3.org/2000/svg">
<path d="M6.63232 0.00194853C7.23278 -0.0160889 7.83041 0.0912671 8.38705 0.317171C8.94369 0.543076 9.44711 0.882568 9.86517 1.31396C10.7157 2.18897 11.141 3.39769 11.1412 4.94011V12.2642H8.06376V5.32251C8.06376 4.52797 7.84898 3.91938 7.41942 3.49675C7.19008 3.28172 6.91987 3.11496 6.62483 3.00637C6.3298 2.89778 6.01596 2.84956 5.70194 2.86458C5.34984 2.84832 4.99823 2.90571 4.66957 3.03308C4.34092 3.16044 4.04245 3.35498 3.79326 3.60427C3.3162 4.09739 3.07767 4.83699 3.07767 5.82307V12.2639H0V0.335403H3.07767V1.67125C3.82488 0.558046 5.00976 0.0013592 6.63232 0.00119015" fill="#271C47"/>
</svg>
