<svg width="13" height="13" viewBox="0 0 13 13" fill="none" xmlns="http://www.w3.org/2000/svg">
<path d="M10.7335 10.7721C9.85041 11.6475 8.72798 12.242 7.50762 12.4807C6.28726 12.7193 5.02357 12.5914 3.87578 12.113C2.728 11.6347 1.74747 10.8273 1.05776 9.79265C0.368042 8.75799 0 7.54234 0 6.29887C0 5.05539 0.368042 3.83974 1.05776 2.80508C1.74747 1.77042 2.728 0.963054 3.87578 0.484709C5.02357 0.00636428 6.28726 -0.12155 7.50762 0.117073C8.72798 0.355696 9.85041 0.950184 10.7335 1.82563C11.9105 3.01697 12.5705 4.62418 12.5705 6.29887C12.5705 7.97355 11.9105 9.58076 10.7335 10.7721ZM3.94598 8.66056C4.24492 8.96588 4.60373 9.20611 4.99991 9.36622C5.39608 9.52632 5.82107 9.60282 6.2482 9.59093C6.67706 9.60206 7.10365 9.52526 7.50169 9.36525C7.89972 9.20524 8.26078 8.96542 8.5626 8.66056C9.16053 8.01944 9.49304 7.1754 9.49304 6.29873C9.49304 5.42207 9.16053 4.57803 8.5626 3.93691C8.26078 3.63206 7.89972 3.39223 7.50169 3.23223C7.10365 3.07222 6.67706 2.99541 6.2482 3.00655C5.82107 2.99465 5.39608 3.07116 4.99991 3.23126C4.60373 3.39136 4.24492 3.6316 3.94598 3.93691C3.35519 4.5816 3.02747 5.42429 3.02747 6.29873C3.02747 7.17318 3.35519 8.01587 3.94598 8.66056Z" fill="#271C47"/>
</svg>
