<svg width="10" height="13" viewBox="0 0 10 13" fill="none" xmlns="http://www.w3.org/2000/svg">
<path d="M3.65 3.72535C3.65 4.04367 3.86072 4.30207 4.28216 4.50053C4.77684 4.72496 5.29217 4.90075 5.82088 5.02543C6.43611 5.18028 7.04161 5.37147 7.63421 5.59801C8.24452 5.83336 8.77723 6.23402 9.17266 6.75509C9.60829 7.33956 9.8314 8.05522 9.80509 8.78371C9.80509 10.0087 9.34788 10.951 8.43348 11.6108C7.51908 12.2706 6.37798 12.6003 5.01018 12.5998C2.56062 12.5998 0.890564 11.6535 0 9.761L2.6722 8.25804C3.0218 9.29196 3.80121 9.80883 5.01044 9.80867C6.10775 9.80867 6.65641 9.46668 6.65641 8.78269C6.65641 8.46488 6.44577 8.20648 6.02449 8.00751C5.52871 7.7826 5.01363 7.60293 4.48553 7.47068C3.8699 7.30803 3.26448 7.10897 2.67245 6.87453C2.06958 6.63704 1.53912 6.24633 1.13349 5.74103C0.699686 5.18792 0.475735 4.49908 0.501328 3.7966C0.47947 3.26305 0.586192 2.73206 0.812496 2.24838C1.0388 1.7647 1.37805 1.34251 1.80167 1.01739C2.73202 0.320573 3.8726 -0.0373129 5.03427 0.00308027C5.95862 -0.00816909 6.87042 0.217687 7.68264 0.659086C8.47449 1.09371 9.1277 1.74287 9.56723 2.53201L6.94245 3.9632C6.78886 3.58806 6.5229 3.26967 6.18111 3.05174C5.83931 2.8338 5.43843 2.72701 5.03351 2.74603C4.68508 2.73302 4.3407 2.82441 4.04456 3.00848C3.92204 3.08285 3.8212 3.18809 3.75213 3.31367C3.68306 3.43925 3.6482 3.58078 3.65101 3.72408" fill="#271C47"/>
</svg>
