<svg width="13" height="13" viewBox="0 0 13 13" fill="none" xmlns="http://www.w3.org/2000/svg">
<path d="M3.22137 7.56428C3.63454 9.05937 4.75578 9.807 6.58508 9.80717C7.76236 9.80717 8.65309 9.40947 9.25728 8.61408L11.7385 10.0455C10.5616 11.7475 8.82797 12.5985 6.53766 12.5983C4.56534 12.5983 2.98285 12.0019 1.79019 10.8091C0.644638 9.59094 0.00473418 7.98305 2.61636e-05 6.3109C-0.00468185 4.63875 0.626156 3.02729 1.76483 1.80274C2.9416 0.602476 4.45257 0.00234067 6.29777 0.00234067C7.10693 -0.0208766 7.91173 0.128851 8.6584 0.441512C9.40507 0.754174 10.0764 1.22257 10.6276 1.81542C11.766 3.02671 12.3793 4.63902 12.3337 6.3007C12.331 6.72483 12.291 7.14791 12.2142 7.56504L3.22137 7.56428ZM3.17371 5.17837H9.25728C9.13791 4.4584 8.75009 3.81043 8.17197 3.36504C7.62834 2.96944 6.97132 2.76031 6.29904 2.76887C5.56306 2.74006 4.83926 2.96305 4.2471 3.40104C3.6905 3.84801 3.31021 4.47769 3.17371 5.17837Z" fill="#271C47"/>
</svg>
