<svg width="13" height="13" viewBox="0 0 13 13" fill="none" xmlns="http://www.w3.org/2000/svg">
<path d="M3.22061 7.56428C3.63378 9.05937 4.75502 9.807 6.58432 9.80717C7.7616 9.80717 8.65242 9.40947 9.25678 8.61408L11.738 10.0455C10.5608 11.7475 8.82713 12.5985 6.53716 12.5983C4.56449 12.5983 2.98192 12.0019 1.78943 10.8091C0.644084 9.59074 0.00444865 7.98274 2.31183e-05 6.3106C-0.00440242 4.63845 0.626706 3.0271 1.76559 1.80274C2.94218 0.602475 4.45317 0.00233995 6.29854 0.00233995C7.10766 -0.0208737 7.91242 0.128857 8.65905 0.441519C9.40568 0.754182 10.077 1.22258 10.6281 1.81542C11.7666 3.02665 12.3799 4.63901 12.3342 6.3007C12.3316 6.72483 12.2917 7.1479 12.215 7.56504L3.22061 7.56428ZM3.1732 5.17837H9.25576C9.13621 4.4584 8.74832 3.81047 8.1702 3.36504C7.62667 2.96943 6.96973 2.76029 6.29752 2.76887C5.56154 2.74002 4.83772 2.96302 4.24557 3.40104C3.6888 3.84786 3.30848 4.47761 3.17219 5.17837" fill="#271C47"/>
</svg>
