<svg width="35" height="35" viewBox="0 0 35 35" fill="none" xmlns="http://www.w3.org/2000/svg">
<path fill-rule="evenodd" clip-rule="evenodd" d="M34.7645 17.3822C34.7645 20.8201 33.745 24.1808 31.835 27.0393C29.925 29.8978 27.2103 32.1257 24.0341 33.4413C20.8579 34.7569 17.363 35.1012 13.9911 34.4305C10.6193 33.7598 7.52209 32.1043 5.09114 29.6733C2.6602 27.2424 1.0047 24.1452 0.334002 20.7733C-0.336695 17.4015 0.00753157 13.9065 1.32315 10.7303C2.63877 7.55414 4.86669 4.83941 7.72519 2.92943C10.5837 1.01944 13.9444 0 17.3822 0C19.6649 0 21.9252 0.449602 24.0341 1.32314C26.143 2.19668 28.0592 3.47705 29.6733 5.09114C31.2874 6.70522 32.5678 8.62142 33.4413 10.7303C34.3149 12.8392 34.7645 15.0996 34.7645 17.3822ZM8.87509 19.4359C9.28859 20.931 10.4099 21.6787 12.239 21.6788C13.416 21.6788 14.3067 21.2811 14.9112 20.4858L17.3925 21.9172C16.2152 23.6192 14.4816 24.4701 12.1916 24.47C10.2193 24.47 8.63681 23.8736 7.44415 22.6807C6.29881 21.4624 5.65918 19.8544 5.65475 18.1823C5.65033 16.5101 6.28144 14.8988 7.42032 13.6744C8.59709 12.4741 10.108 11.874 11.953 11.874C12.7622 11.8508 13.567 12.0005 14.3138 12.3132C15.0605 12.6258 15.7319 13.0942 16.2831 13.6871C17.4214 14.8985 18.0345 16.5107 17.9889 18.1724C17.9864 18.5965 17.9464 19.0196 17.8695 19.4367L8.87509 19.4359ZM8.82666 17.05H14.9112C14.7917 16.3301 14.4038 15.6821 13.8257 15.2367C13.2821 14.8411 12.625 14.6319 11.9528 14.6405C11.2168 14.6117 10.493 14.8347 9.90081 15.2727C9.34392 15.7196 8.96336 16.3493 8.82666 17.05ZM23.2914 24.0103C24.0636 24.3227 24.8901 24.4789 25.7231 24.4697L25.7241 24.4695C26.8391 24.4816 27.9363 24.1889 28.8971 23.6228C29.8259 23.0843 30.5923 22.3055 31.1159 21.3682L28.4439 19.8412C28.21 20.3295 27.831 20.7336 27.3586 20.9982C26.8527 21.2819 26.2804 21.426 25.7005 21.4156C25.2761 21.4286 24.8535 21.3537 24.4594 21.1957C24.0653 21.0377 23.7081 20.8 23.4102 20.4974C22.8269 19.8585 22.5036 19.0246 22.5036 18.1594C22.5036 17.2943 22.8269 16.4604 23.4102 15.8215C23.7081 15.5189 24.0653 15.2812 24.4594 15.1231C24.8536 14.9651 25.2761 14.8901 25.7005 14.903C26.2741 14.8949 26.839 15.0433 27.3345 15.3323C27.8058 15.6038 28.1842 16.0112 28.4201 16.5013L31.0672 14.9507C30.5729 14.0109 29.8194 13.2325 28.8961 12.708C27.9329 12.149 26.8366 11.8604 25.7231 11.8728C24.8901 11.8636 24.0636 12.0198 23.2914 12.3322C22.5192 12.6446 21.8167 13.1071 21.2244 13.6929C20.6322 14.2786 20.162 14.9761 19.8411 15.7448C19.5202 16.5135 19.355 17.3382 19.355 18.1712C19.355 19.0042 19.5202 19.829 19.8411 20.5977C20.162 21.3664 20.6322 22.0638 21.2244 22.6496C21.8167 23.2354 22.5192 23.6979 23.2914 24.0103Z" fill="#F7CA11"/>
</svg>
