<svg width="18" height="18" viewBox="0 0 18 18" fill="none" xmlns="http://www.w3.org/2000/svg">
<path d="M15.0453 14.8733C13.8075 16.082 12.2341 16.9028 10.5235 17.2323C8.81294 17.5618 7.04161 17.3852 5.43274 16.7247C3.82388 16.0642 2.44946 14.9495 1.48267 13.5209C0.51589 12.0923 0 10.4139 0 8.69698C0 6.98009 0.51589 5.30161 1.48267 3.87303C2.44946 2.44446 3.82388 1.32971 5.43274 0.669248C7.04161 0.00878729 8.81294 -0.167827 10.5235 0.161645C12.2341 0.491117 13.8075 1.31194 15.0453 2.52069C16.6951 4.16559 17.6202 6.3847 17.6202 8.69698C17.6202 11.0092 16.6951 13.2284 15.0453 14.8733ZM5.53113 11.9578C5.95017 12.3794 6.45312 12.7111 7.00844 12.9321C7.56377 13.1532 8.15948 13.2588 8.7582 13.2424C9.35933 13.2578 9.95728 13.1517 10.5152 12.9308C11.0732 12.7099 11.5793 12.3787 12.0023 11.9578C12.8404 11.0726 13.3065 9.90723 13.3065 8.69679C13.3065 7.48636 12.8404 6.32098 12.0023 5.43578C11.5793 5.01485 11.0732 4.68373 10.5152 4.4628C9.95728 4.24187 9.35933 4.13583 8.7582 4.1512C8.15948 4.13478 7.56377 4.24041 7.00844 4.46147C6.45312 4.68252 5.95017 5.01422 5.53113 5.43578C4.70302 6.32592 4.24365 7.48943 4.24365 8.69679C4.24365 9.90415 4.70302 11.0677 5.53113 11.9578Z" fill="white"/>
</svg>
