<svg width="16" height="17" viewBox="0 0 16 17" fill="none" xmlns="http://www.w3.org/2000/svg">
<path d="M9.29661 0.00269037C10.1383 -0.0222143 10.976 0.126014 11.7562 0.437925C12.5365 0.749836 13.2421 1.21858 13.8282 1.81421C15.0203 3.02236 15.6165 4.69126 15.6167 6.82092V16.9334H11.3031V7.3489C11.3031 6.25186 11.002 5.41156 10.3999 4.82803C10.0784 4.53114 9.69967 4.3009 9.28612 4.15096C8.87257 4.00102 8.43266 3.93445 7.99249 3.95519C7.49895 3.93274 7.00609 4.01197 6.5454 4.18783C6.08472 4.36369 5.66636 4.6323 5.31707 4.97649C4.64837 5.65735 4.31401 6.67853 4.31401 8.04003V16.9331H0V0.463098H4.31401V2.30753C5.36138 0.770505 7.02225 0.00187667 9.29661 0.00164326" fill="white"/>
</svg>
