<svg width="14" height="18" viewBox="0 0 14 18" fill="none" xmlns="http://www.w3.org/2000/svg">
<path d="M5.11625 5.14366C5.11625 5.58318 5.41162 5.93996 6.00237 6.21398C6.69576 6.52385 7.41811 6.76656 8.1592 6.93872C9.02158 7.15252 9.87033 7.41651 10.701 7.72929C11.5565 8.05425 12.3032 8.60745 12.8574 9.32689C13.4681 10.1339 13.7808 11.122 13.7439 12.1278C13.7439 13.8192 13.1031 15.1203 11.8213 16.0313C10.5396 16.9423 8.9401 17.3975 7.02284 17.3968C3.58926 17.3968 1.24832 16.0903 0 13.4772L3.74566 11.4021C4.23569 12.8296 5.32821 13.5433 7.0232 13.543C8.56132 13.543 9.33038 13.0708 9.33038 12.1264C9.33038 11.6876 9.03512 11.3309 8.44462 11.0561C7.74967 10.7456 7.02768 10.4975 6.28743 10.3149C5.42449 10.0904 4.57586 9.8155 3.74602 9.4918C2.90096 9.16389 2.1574 8.62444 1.58883 7.92677C0.980759 7.16307 0.666844 6.21197 0.702718 5.24205C0.672081 4.50536 0.821673 3.77221 1.13889 3.10438C1.4561 2.43656 1.93164 1.85364 2.52543 1.40473C3.82952 0.442621 5.42828 -0.0515187 7.05661 0.00425299C8.35227 -0.0112792 9.63036 0.300565 10.7689 0.910014C11.8788 1.5101 12.7944 2.40642 13.4105 3.496L9.73133 5.47207C9.51603 4.95411 9.14324 4.5145 8.66414 4.21359C8.18504 3.91269 7.62313 3.76524 7.05555 3.7915C6.56714 3.77354 6.08442 3.89973 5.66932 4.15388C5.49758 4.25656 5.35623 4.40186 5.25941 4.57525C5.1626 4.74865 5.11373 4.94406 5.11767 5.14191" fill="white"/>
</svg>
