<svg width="18" height="18" viewBox="0 0 18 18" fill="none" xmlns="http://www.w3.org/2000/svg">
<path d="M4.51545 10.4442C5.09458 12.5085 6.66624 13.5407 9.2304 13.541C10.8806 13.541 12.1292 12.9919 12.9761 11.8936L16.4541 13.8701C14.8043 16.2201 12.3743 17.395 9.16393 17.3947C6.3993 17.3947 4.1811 16.5712 2.50933 14.9243C0.903599 13.2424 0.00663597 11.0224 3.66739e-05 8.71359C-0.00656262 6.40482 0.877692 4.17984 2.47379 2.48908C4.12328 0.83185 6.24124 0.00323181 8.82768 0.00323181C9.96189 -0.0288247 11.09 0.177907 12.1366 0.609605C13.1832 1.0413 14.1243 1.68803 14.8969 2.50658C16.4926 4.17904 17.3523 6.4052 17.2883 8.69951C17.2846 9.28511 17.2285 9.86926 17.1209 10.4452L4.51545 10.4442ZM4.44863 7.14988H12.9761C12.8087 6.1558 12.2651 5.26114 11.4548 4.64617C10.6927 4.09997 9.7718 3.81122 8.82946 3.82304C7.79783 3.78326 6.78327 4.09115 5.95322 4.69589C5.17302 5.31302 4.63997 6.18243 4.44863 7.14988Z" fill="white"/>
</svg>
