<svg width="18" height="18" viewBox="0 0 18 18" fill="none" xmlns="http://www.w3.org/2000/svg">
<path d="M4.51403 10.4442C5.09364 12.5085 6.66541 13.5407 9.22933 13.541C10.8791 13.541 12.1276 12.9918 12.975 11.8936L16.453 13.8701C14.8028 16.2201 12.3728 17.395 9.16287 17.3947C6.39823 17.3947 4.18003 16.5712 2.50826 14.9243C0.902815 13.2421 0.00623574 11.0219 3.2405e-05 8.71317C-0.00617093 6.40441 0.878467 4.17958 2.47485 2.48908C4.12434 0.831851 6.24219 0.0032328 8.8284 0.0032328C9.96266 -0.0288287 11.0908 0.177898 12.1375 0.609595C13.1842 1.04129 14.1253 1.68802 14.8979 2.50659C16.4935 4.17916 17.353 6.40526 17.289 8.69951C17.2854 9.28512 17.2294 9.86928 17.1216 10.4452L4.51403 10.4442ZM4.44614 7.14988H12.975C12.8074 6.15581 12.2637 5.2612 11.4533 4.64617C10.6914 4.0999 9.77039 3.81114 8.82804 3.82304C7.79641 3.78326 6.78184 4.09115 5.95179 4.69589C5.1712 5.31286 4.63775 6.18229 4.44614 7.14988Z" fill="#F4F4F4"/>
</svg>
