<svg width="17" height="18" viewBox="0 0 17 18" fill="none" xmlns="http://www.w3.org/2000/svg">
<path d="M8.92624 17.3934C7.75868 17.4061 6.60016 17.1904 5.51776 16.7591C4.43536 16.3277 3.45058 15.6892 2.62041 14.8804C1.79025 14.0716 1.13119 13.1086 0.681395 12.0472C0.231599 10.9858 0 9.84712 0 8.69697C0 7.54683 0.231599 6.4081 0.681395 5.34672C1.13119 4.28534 1.79025 3.32238 2.62041 2.51359C3.45058 1.7048 4.43536 1.06623 5.51776 0.634861C6.60016 0.203492 7.75868 -0.0121143 8.92624 0.000525218C10.4872 -0.0165241 12.0238 0.381934 13.3739 1.15382C14.6681 1.87802 15.7243 2.95266 16.4172 4.25028L12.7067 6.39125C12.376 5.7146 11.8457 5.15205 11.1851 4.77721C10.4905 4.37817 9.6986 4.17324 8.8946 4.18446C8.29968 4.16669 7.70744 4.27015 7.15501 4.48837C6.60258 4.70658 6.10186 5.03485 5.68424 5.45258C4.86669 6.33481 4.41343 7.48618 4.41343 8.68069C4.41343 9.87519 4.86669 11.0266 5.68424 11.9088C6.10183 12.3265 6.60255 12.6548 7.15499 12.873C7.70744 13.0911 8.29969 13.1945 8.8946 13.1766C9.70752 13.1909 10.5097 12.992 11.2188 12.6003C11.8809 12.2349 12.4123 11.6769 12.7401 11.0027L16.4854 13.1111C15.7516 14.4052 14.6772 15.4806 13.3753 16.224C12.0286 17.0056 10.4907 17.4099 8.92766 17.3931" fill="#F4F4F4"/>
</svg>
