<svg width="18" height="18" viewBox="0 0 18 18" fill="none" xmlns="http://www.w3.org/2000/svg">
<path d="M4.51438 10.4442C5.09352 12.5085 6.66517 13.5407 9.22934 13.541C10.8795 13.541 12.1282 12.9918 12.9754 11.8936L16.4534 13.8701C14.8032 16.2201 12.3731 17.395 9.16323 17.3947C6.39812 17.3947 4.1798 16.5712 2.50827 14.9243C0.902822 13.2421 0.00623574 11.0219 3.24052e-05 8.71317C-0.00617093 6.40441 0.878463 4.17957 2.47485 2.48908C4.1241 0.831849 6.24207 0.00323082 8.82875 0.00323082C9.9629 -0.0288208 11.091 0.177915 12.1375 0.609615C13.1841 1.04131 14.1251 1.68803 14.8976 2.50658C16.4935 4.17896 17.3531 6.40517 17.289 8.69951C17.2854 9.2851 17.2295 9.86925 17.122 10.4452L4.51438 10.4442ZM4.44792 7.14988H12.9739C12.8064 6.15581 12.2626 5.2612 11.4523 4.64617C10.6904 4.09995 9.76956 3.81119 8.82733 3.82304C7.79569 3.7832 6.7811 4.0911 5.95108 4.69589C5.17065 5.31282 4.63755 6.18232 4.4465 7.14988" fill="#271C47"/>
</svg>
