<svg width="15" height="15" viewBox="0 0 15 15" fill="none" xmlns="http://www.w3.org/2000/svg">
<path d="M12.7518 12.7976C11.7026 13.8377 10.3691 14.544 8.91931 14.8275C7.46948 15.111 5.96818 14.959 4.60457 14.3907C3.24096 13.8224 2.07606 12.8632 1.25665 11.634C0.437247 10.4048 0 8.96056 0 7.48327C0 6.00598 0.437247 4.56174 1.25665 3.33253C2.07606 2.10332 3.24096 1.14414 4.60457 0.575851C5.96818 0.00756098 7.46948 -0.144406 8.91931 0.139087C10.3691 0.42258 11.7026 1.12885 12.7518 2.16892C14.1501 3.58426 14.9342 5.49369 14.9342 7.48327C14.9342 9.47286 14.1501 11.3823 12.7518 12.7976ZM4.68796 10.289C5.04312 10.6518 5.4694 10.9372 5.94007 11.1274C6.41073 11.3176 6.91563 11.4085 7.42309 11.3944C7.93258 11.4076 8.43938 11.3163 8.91227 11.1262C9.38515 10.9361 9.8141 10.6512 10.1727 10.289C10.883 9.52738 11.2781 8.52463 11.2781 7.48312C11.2781 6.44161 10.883 5.43886 10.1727 4.67719C9.8141 4.31501 9.38515 4.03009 8.91227 3.84C8.43938 3.6499 7.93258 3.55866 7.42309 3.57188C6.91563 3.55775 6.41073 3.64864 5.94007 3.83885C5.4694 4.02905 5.04312 4.31447 4.68796 4.67719C3.98609 5.44311 3.59674 6.44425 3.59674 7.48312C3.59674 8.52198 3.98609 9.52314 4.68796 10.289Z" fill="#271C47"/>
</svg>
