<svg width="15" height="15" viewBox="0 0 15 15" fill="none" xmlns="http://www.w3.org/2000/svg">
<path d="M3.8262 8.98663C4.31705 10.7628 5.64913 11.6511 7.82241 11.6513C9.22105 11.6513 10.2794 11.1788 10.9974 10.2338L13.9452 11.9344C12.5465 13.9565 10.4869 14.9674 7.76637 14.9672C5.42278 14.9672 3.54262 14.2587 2.1259 12.8415C0.765194 11.3941 0.00528516 9.48378 2.74653e-05 7.49721C-0.00523022 5.51064 0.744549 3.5963 2.09758 2.14172C3.49542 0.715761 5.29052 0.00277995 7.48288 0.00277995C8.44415 -0.0247987 9.40023 0.153086 10.2873 0.52454C11.1743 0.895995 11.9718 1.45246 12.6266 2.15678C13.9792 3.59576 14.7078 5.5113 14.6534 7.48545C14.6504 7.98933 14.603 8.49196 14.5119 8.98753L3.8262 8.98663ZM3.76987 6.15208H10.9962C10.8541 5.29674 10.3933 4.52698 9.70648 3.99778C9.06075 3.52779 8.28028 3.27932 7.48168 3.28952C6.60731 3.25524 5.74738 3.52017 5.04389 4.04056C4.38243 4.57139 3.93059 5.31955 3.76867 6.15208" fill="#271C47"/>
</svg>
