<svg width="14" height="15" viewBox="0 0 14 15" fill="none" xmlns="http://www.w3.org/2000/svg">
<path d="M7.87943 0.00231492C8.5928 -0.0191142 9.3028 0.108428 9.9641 0.376811C10.6254 0.645193 11.2235 1.04852 11.7202 1.56103C12.7306 2.60058 13.2359 4.03657 13.2361 5.86903V14.5703H9.58003V6.32333C9.58003 5.37938 9.32487 4.65636 8.81454 4.15426C8.54206 3.8988 8.22104 3.70069 7.87054 3.57167C7.52003 3.44266 7.14718 3.38538 6.77411 3.40323C6.3558 3.38391 5.93807 3.45208 5.54762 3.6034C5.15716 3.75472 4.80258 3.98584 4.50653 4.282C3.93976 4.86784 3.65638 5.74652 3.65638 6.91801V14.57H0V0.398471H3.65638V1.9855C4.54409 0.662978 5.95177 0.00161477 7.87943 0.00141393" fill="#271C47"/>
</svg>
