<svg width="12" height="15" viewBox="0 0 12 15" fill="none" xmlns="http://www.w3.org/2000/svg">
<path d="M4.33632 4.42584C4.33632 4.80402 4.58666 5.11101 5.08736 5.34679C5.67505 5.61341 6.28729 5.82226 6.9154 5.97039C7.64632 6.15436 8.36568 6.3815 9.06971 6.65063C9.79478 6.93024 10.4277 7.40624 10.8974 8.02528C11.415 8.71966 11.6801 9.56988 11.6488 10.4354C11.6488 11.8906 11.1056 13.0102 10.0193 13.7941C8.93293 14.578 7.57726 14.9696 5.95227 14.969C3.04211 14.969 1.05802 13.8448 0 11.5964L3.17466 9.81084C3.59 11.0392 4.51597 11.6532 5.95258 11.653C7.25622 11.653 7.90805 11.2467 7.90805 10.4341C7.90805 10.0566 7.6578 9.74959 7.15731 9.5132C6.5683 9.246 5.95637 9.03254 5.32897 8.87543C4.59758 8.6822 3.87831 8.4457 3.17497 8.16718C2.45873 7.88503 1.82852 7.42086 1.34663 6.82055C0.831251 6.16343 0.565189 5.34506 0.595595 4.5105C0.569628 3.87662 0.696416 3.24578 0.965273 2.67115C1.23413 2.09653 1.63718 1.59495 2.14045 1.20869C3.24574 0.380852 4.60079 -0.044329 5.98089 0.00365946C7.07904 -0.00970517 8.16229 0.25862 9.12724 0.783018C10.068 1.29936 10.844 2.07059 11.3662 3.00812L8.24787 4.70842C8.0654 4.26274 7.74943 3.88448 7.34337 3.62557C6.9373 3.36665 6.46105 3.23978 5.97999 3.26238C5.56603 3.24692 5.1569 3.3555 4.80508 3.57419C4.65952 3.66253 4.53972 3.78756 4.45766 3.93676C4.37561 4.08596 4.33418 4.25409 4.33753 4.42434" fill="#271C47"/>
</svg>
