<svg width="15" height="15" viewBox="0 0 15 15" fill="none" xmlns="http://www.w3.org/2000/svg">
<path d="M3.82711 8.98663C4.31796 10.7628 5.65003 11.6511 7.82331 11.6513C9.22195 11.6513 10.2802 11.1788 10.998 10.2338L13.9458 11.9344C12.5475 13.9565 10.4879 14.9674 7.76697 14.9672C5.42378 14.9672 3.54373 14.2587 2.12681 12.8415C0.765853 11.3944 0.00562437 9.48414 3.10833e-05 7.49757C-0.0055622 5.511 0.743896 3.59653 2.09668 2.14172C3.49472 0.715762 5.28982 0.0027808 7.48198 0.0027808C8.44328 -0.0248021 9.39941 0.153079 10.2865 0.524532C11.1736 0.895985 11.9711 1.45246 12.626 2.15678C13.9785 3.59584 14.7071 5.51132 14.6528 7.48545C14.6497 7.98934 14.6022 8.49196 14.5109 8.98753L3.82711 8.98663ZM3.77047 6.15208H10.998C10.8562 5.29673 10.3954 4.52693 9.70859 3.99778C9.06273 3.5278 8.28217 3.27934 7.48348 3.28952C6.60912 3.25529 5.74922 3.52021 5.0457 4.04056C4.38444 4.57157 3.93264 5.31965 3.77047 6.15208Z" fill="#271C47"/>
</svg>
